<svg width="200" height="87" viewBox="0 0 200 87" fill="none" xmlns="http://www.w3.org/2000/svg"><g clip-path="url(#clip0_2_2841)"><path d="M180.4 35.9H63.1a1.9 1.9 0 0 0-1.9 1.9 1.9 1.9 0 0 0 1.9 1.9h3.3v45a1.9 1.9 0 0 0 1.9 1.9 1.9 1.9 0 0 0 1.8-1.9v-45h94.3l8.6 45a1.9 1.9 0 0 0 3.2 1.3c.4-.3.6-.8.6-1.3l.5-45h3.1a1.9 1.9 0 0 0 1.8-2 1.9 1.9 0 0 0-1.8-1.8Z" fill="#E7E7E7"/><path d="M83.4 27.5v8h-20a4 4 0 0 1-4-3.9 4 4 0 0 1 3.8-4.1h20.2Z" fill="#F5A040"/><path d="M83.9 35.4a.3.3 0 0 1-.3.3H63a4.2 4.2 0 0 1-4.2-4.2 4.2 4.2 0 0 1 4.2-4.2h20.5a.3.3 0 0 1 .3.3.3.3 0 0 1-.3.3H63a3.6 3.6 0 0 0-3.6 3.6 3.6 3.6 0 0 0 3.6 3.6h20.5a.3.3 0 0 1 .3.3ZM83.4 29.3H62h21.4Z" fill="#fff"/><path d="M83.4 30.8H62v-.1h21.4v.1ZM83.4 32.3H62v-.1h21.4ZM83.4 33.8H62v-.1h21.4Z" fill="#fff"/><path d="M79.6 19v8H59.7a4 4 0 0 1-3.9-5.3 4 4 0 0 1 3.6-2.6h20.3Z" fill="#F2F2F2"/><path d="M80.1 27a.3.3 0 0 1-.3.3H59.4a4.2 4.2 0 0 1-4.2-4.2 4.2 4.2 0 0 1 4.2-4.2h20.4a.3.3 0 0 1 .2.5l-.2.1H59.4a3.6 3.6 0 0 0-3.6 3.6 3.6 3.6 0 0 0 3.6 3.6h20.4a.3.3 0 0 1 .3.3Z" fill="#050038"/><path d="M79.6 21H58.2v-.2h21.4v.1ZM79.6 22.4H58.2v-.1h21.4v.1ZM79.6 23.9H58.2v-.1h21.4ZM79.6 25.4H58.2v-.2h21.4v.1Z" fill="#CCC"/><path d="M102.8 64.1v-7a1.2 1.2 0 0 0-1.1-1.1H75.4a1.2 1.2 0 0 0-1.2 1.2v7h28.6ZM102.8 66.7H74.2v9h28.6v-9ZM74.2 78.3v7a1.2 1.2 0 0 0 1.2 1.1h26.3a1.2 1.2 0 0 0 1.1-1.1v-7H74.2Z" fill="#C7C7C7"/><path d="M88.4 61.2a.9.9 0 1 0 0-1.7.9.9 0 0 0 0 1.7ZM88.4 72.8a.9.9 0 1 0 0-1.7.9.9 0 0 0 0 1.7ZM88.4 84.2a.9.9 0 1 0 0-1.8.9.9 0 0 0 0 1.8ZM100 56a.3.3 0 0 1-.2.3H79.3a4.2 4.2 0 0 1-4.2-4.2 4.2 4.2 0 0 1 4.2-4.2h20.5a.3.3 0 0 1 .3.3.3.3 0 0 1-.3.3H79.3a3.6 3.6 0 0 0-3.6 3.6 3.6 3.6 0 0 0 3.6 3.6h20.5a.3.3 0 0 1 .3.3Z" fill="#fff"/><path d="M99.6 50H78.2v-.2h21.4v.1ZM99.6 51.4H78.2v-.1h21.4ZM99.6 52.9H78.2v-.2h21.4v.2ZM99.6 54.3H78.2h21.4Z" fill="#fff"/><path d="M76.2 16.4H66.9l-2.3 1.2a.4.4 0 0 0-.2.7l.2.1 2.3 1.2H76a.5.5 0 0 0 .6-.4v-2.3a.5.5 0 0 0-.5-.5Z" fill="#3F3D56"/><path d="M76.7 16.9v2.3a.5.5 0 0 1-.5.4h-1.8v-3.2h1.8a.5.5 0 0 1 .5.5Z" fill="#F5A040"/><path d="M21.7 61.5a7.2 7.2 0 0 0 7-1.2c2.4-2 3.2-5.5 3.8-8.6l1.9-9.3-3.9 2.7c-2.8 2-5.6 3.9-7.5 6.7-2 2.7-2.8 6.5-1.2 9.5" fill="#050038"/><path d="M22 72.7c-.4-2.8-.6-5.7-.4-8.6.1-2.6 1-5 2.6-7 .8-1.2 1.8-2.1 3-2.8.3-.2.6.3.3.4-2 1.3-3.6 3.2-4.5 5.4a18 18 0 0 0-1 7.8 65.1 65.1 0 0 0 .4 5 .3.3 0 0 1-.3-.2Z" fill="#F2F2F2"/><path d="M25.8 67.7a5.3 5.3 0 0 0 4.7 2.4c2.3-.1 4.3-1.8 6-3.3l5.2-4.6-3.4-.2c-2.5-.3-5 0-7.4.5-2.4.8-4.5 2.7-5 5.1" fill="#050038"/><path d="M21 74.4c1.8-3.4 4-7 8-8.2 1-.4 2.1-.5 3.3-.4.3 0 .2.6-.1.6-2-.2-3.8.3-5.4 1.4-1.4 1-2.7 2.4-3.6 4l-1.7 2.8c-.2.3-.7 0-.5-.2Z" fill="#fff"/><path d="M18 77.9a4 4 0 0 1 2.4-3.4v-2h3.2v2A4 4 0 0 1 26 78l.7 8.8h-9.5L18 78Z" fill="#050038"/><path d="m127.6 35.7-1-.4-.7-4.8h-8.7l-.7 4.8-.9.4v.1l-.1.2a.2.2 0 0 0 .2.1h11.8a.2.2 0 0 0 0-.4Z" fill="#E7E7E7"/><path d="M143.1 31.1h-43a.9.9 0 0 1-.8-.8v-6.1H144v6a.9.9 0 0 1-.9 1Z" fill="#C7C7C7"/><path d="M144 27H99.2V1a1 1 0 0 1 1-1H143a1 1 0 0 1 1 1v26Z" fill="#050038"/><path d="M141.3 25.2H102a.8.8 0 0 1-.8-.8V2.7a.8.8 0 0 1 .8-.8h39.4a.8.8 0 0 1 .8.8v21.7a.8.8 0 0 1-.8.8Z" fill="#fff"/><path d="M131 32.8a2.4 2.4 0 0 1 3.6.5l5.3-1 1.4 3.2-7.6 1.2a2.4 2.4 0 0 1-3.5-2.4c0-.5.3-1 .8-1.5Z" fill="#FEE6C2"/><path d="M135.9 36.8h6.3l11.3-.2s3-3 5.7-6L159 28c-.4-2.7-1.7-5.1-3.8-6.9-3.8 2.6-6 7.7-6 7.7l-7 1.6-.7.2-4.4 1-1.1 5.3Z" fill="#3F53D9"/><path d="M164.4 53.5H154c0 .5-11.4.8-11.4.8l-.6.7a4 4 0 0 0-1 2.6v.6a4 4 0 0 0 4 4h19.4a4 4 0 0 0 4-4v-.6a4 4 0 0 0-4-4Z" fill="#3F3D56"/><path d="M156.8 62.1h-4.2v24.3h4.2V62Z" fill="#3F3D56"/><path d="M140.7 86.2c0 .5 6.4.2 14.2.2 7.8 0 14.2.3 14.2-.2 0-.4-6.4-4-14.2-4-7.8 0-14.2 3.6-14.2 4Z" fill="#3F3D56"/><path d="M137.9 83.4h-3.1l-1.5-12h4.6v12Z" fill="#FEE6C2"/><path d="M138.7 86.5h-10v-.1a4 4 0 0 1 3.8-4h6.2v4Z" fill="#050038"/><path d="M128.7 83.4h-3.2l-1.4-12h4.6v12Z" fill="#FEE6C2"/><path d="M129.5 86.5h-10.1v-.1a4 4 0 0 1 4-4h6v4Z" fill="#050038"/><path d="M156.6 14a5.4 5.4 0 1 0 0-10.9 5.4 5.4 0 0 0 0 10.9Z" fill="#FEE6C2"/><path d="M165.4 45.8s1.8 9.7-5.1 10.9c-7 1.2-17 2-17 2l-4.4 21-6-.5s.8-25.2 2.7-27.2c2-2 14.5-8 14.5-8l15.3 1.8Z" fill="#050038"/><path d="m151.9 41.8-3 3s-22 3.5-22.8 8.6c-1.2 7.6-2.8 24.3-2.8 24.3l6.6-.5 2.6-19L143 56l12-6.6-3.1-7.5ZM161.8 5.3c-.5-1-1.2-3-2.3-3.4-.6-.2-1.2-.4-1.8-.4l-1.9.7 1-.8h-.5l-1.3.5.7-.5a5 5 0 0 0-3.3.8c-.7.6-1.5 2.9-1.6 3.8-.2 1-.1 1.9.1 2.8l.3.3.3-.8a3.7 3.7 0 0 1 1.7-2.4c.6-.3 1.2-.4 1.8-.3l2.9.1a2.4 2.4 0 0 1 2.8 1.7l.7 2.5s.3-.3.5 0l.4-2.4c0-.7-.1-1.5-.5-2.2Z" fill="#050038"/><path d="M180.8 11a2.4 2.4 0 0 0-2.1 2.9l-4.4 3.2 1.3 3.1 6.1-4.6a2.4 2.4 0 0 0 1.6-2.8 2.4 2.4 0 0 0-2.5-1.9Z" fill="#FEE6C2"/><path d="m180.1 17.5-11 12.2S164 28 160 26.2l-1.8-5.6c-.4-1.3-.6-2.7-.6-4 5.7-1.5 12.2 4 12.2 4l8.2-6.4 2.2 3.3Z" fill="#3F53D9"/><path d="M154.6 46.7c-2-.8-4-1.3-6.2-1.6V45a43 43 0 0 0 .6-20.7 7.7 7.7 0 0 1 4.4-8l6.2-.5 4.5 1.4a3.1 3.1 0 0 1 2.2 3l.2 8.3c.3 6.6.5 13.5-1 18-1.3 1-3 1.7-4.7 1.7-2.1-.2-4.2-.7-6.2-1.5Z" fill="#3F53D9"/><path d="M199.7 87H.3a.3.3 0 0 1-.3-.3.3.3 0 0 1 .3-.3h199.4l.2.1.1.2v.2l-.3.1Z" fill="#CCC"/></g><defs><clipPath id="clip0_2_2841"><path fill="#fff" d="M0 0h200v87H0z"/></clipPath></defs></svg>